HIERARCHY
ROOT Hips
{
	OFFSET 0.000000 0.000000 0.000000 
	CHANNELS 6 Xposition Yposition Zposition Zrotation Yrotation Xrotation
	JOINT LeftUpLeg
	{
		OFFSET 1.363060 -1.794630 0.839290 
		CHANNELS 3 Zrotation Yrotation Xrotation
		JOINT LeftLeg
		{
			OFFSET 2.448110 -6.726130 0.000000 
			CHANNELS 3 Zrotation Yrotation Xrotation
			JOINT LeftFoot
			{
				OFFSET 2.562200 -7.039590 0.000000 
				CHANNELS 3 Zrotation Yrotation Xrotation
				JOINT LeftToeBase
				{
					OFFSET 0.157640 -0.433110 2.322550 
					CHANNELS 3 Zrotation Yrotation Xrotation
					End Site
					{
						OFFSET 0.000000 0.000000 0.000000 
					}
				}
			}
		}
	}
	JOINT RightUpLeg
	{
		OFFSET -1.305520 -1.794630 0.839290 
		CHANNELS 3 Zrotation Yrotation Xrotation
		JOINT RightLeg
		{
			OFFSET -2.542530 -6.985550 0.000000 
			CHANNELS 3 Zrotation Yrotation Xrotation
			JOINT RightFoot
			{
				OFFSET -2.568260 -7.056230 0.000000 
				CHANNELS 3 Zrotation Yrotation Xrotation
				JOINT RightToeBase
				{
					OFFSET -0.164730 -0.452590 2.363150 
					CHANNELS 3 Zrotation Yrotation Xrotation
					End Site
					{
						OFFSET 0.000000 0.000000 0.000000 
					}
				}
			}
		}
	}
	JOINT Spine
	{
		OFFSET 0.028270 2.035590 -0.193380 
		CHANNELS 3 Zrotation Yrotation Xrotation
		JOINT Spine1
		{
			OFFSET 0.056720 2.048850 -0.042750 
			CHANNELS 3 Zrotation Yrotation Xrotation
			JOINT Neck1
			{
				OFFSET -0.054170 1.746240 0.172020 
				CHANNELS 3 Zrotation Yrotation Xrotation
				JOINT Head
				{
					OFFSET 0.104070 1.761360 -0.123970 
					CHANNELS 3 Zrotation Yrotation Xrotation
					End Site
					{
						OFFSET 0.000000 0.000000 0.000000 
					}
				}
			}
			JOINT LeftArm
			{
				OFFSET 3.362410 1.200890 -0.311210 
				CHANNELS 3 Zrotation Yrotation Xrotation
				JOINT LeftForeArm
				{
					OFFSET 4.983000 -0.000000 -0.000000 
					CHANNELS 3 Zrotation Yrotation Xrotation
					JOINT LeftHand
					{
						OFFSET 3.483560 -0.000000 -0.000000 
						CHANNELS 3 Zrotation Yrotation Xrotation
						JOINT LeftHandIndex1
						{
							OFFSET 0.715260 -0.000000 -0.000000 
							CHANNELS 3 Zrotation Yrotation Xrotation
							End Site
							{
								OFFSET 0.000000 0.000000 0.000000 
							}
						}
					}
				}
			}
			JOINT RightArm
			{
				OFFSET -3.136600 1.374050 -0.404650 
				CHANNELS 3 Zrotation Yrotation Xrotation
				JOINT RightForeArm
				{
					OFFSET -5.241900 -0.000000 -0.000000 
					CHANNELS 3 Zrotation Yrotation Xrotation
					JOINT RightHand
					{
						OFFSET -3.444170 -0.000000 -0.000000 
						CHANNELS 3 Zrotation Yrotation Xrotation
						JOINT RightHandIndex1
						{
							OFFSET -0.622530 -0.000000 -0.000000 
							CHANNELS 3 Zrotation Yrotation Xrotation
							End Site
							{
								OFFSET 0.000000 0.000000 0.000000 
							}
						}
					}
				}
			}
		}
	}
}
MOTION
Frames: 13
Frame Time: 0.041667
51.611090 17.171879 -8.724685 -16.783596 -81.882870 17.859438 -17.134165 -2.608782 -17.705785 3.242862 12.669525 36.884999 0.632786 -7.046309 0.843741 1.097300 -6.656400 -18.701300 32.261907 2.355541 -11.314373 -3.499152 -11.100186 32.741880 -1.244762 -2.661632 -22.965471 -1.346000 -7.345100 20.741800 0.975188 -0.244688 0.875032 -0.414850 -0.507875 13.553972 1.424494 -0.545010 26.352976 -0.401500 -0.979700 14.831800 -77.655702 -8.030709 23.906177 9.723107 -17.377684 -2.326073 -1.366079 -0.669187 -5.397576 -7.125000 0.000000 0.000000 68.870162 13.260490 31.981503 -10.764633 20.443870 -2.552966 0.750106 -0.608951 -2.099636 7.125000 0.000000 0.000000 
51.597689 17.171467 -8.709739 -17.158587 -82.034678 18.206044 -17.234066 -2.471243 -17.356573 3.157186 12.525661 36.472406 0.635601 -6.986500 0.511016 1.080800 -6.607800 -18.558400 32.228315 2.436544 -11.205836 -3.499337 -11.091981 32.726070 -1.230666 -2.921666 -23.066453 -1.195000 -6.936400 19.527100 0.960855 -0.165492 0.822604 -0.503431 -0.449286 13.298198 1.406580 -0.562668 26.299874 -0.461200 -0.956100 14.650100 -77.701046 -7.457216 23.890875 9.645638 -17.329320 -2.306335 -1.363926 -0.680871 -5.363193 -7.125000 0.000000 0.000000 69.073221 12.853387 31.917582 -10.972122 20.713488 -2.621430 0.743996 -0.606555 -2.135332 7.125000 0.000000 0.000000 
51.585526 17.171467 -8.693040 -17.787526 -82.244544 18.802664 -17.332592 -2.289449 -17.021292 3.083118 12.392577 36.102365 0.637443 -6.910642 0.191132 1.047600 -6.508900 -18.268200 32.201263 2.570406 -11.096988 -3.494971 -11.086097 32.707255 -1.226052 -2.873862 -22.988005 -1.212400 -6.984900 19.670500 0.945831 -0.071263 0.771329 -0.598646 -0.382822 13.024965 1.401141 -0.560831 26.201470 -0.506600 -0.924700 14.417600 -77.760783 -6.948088 23.769811 9.517208 -17.208268 -2.267739 -1.359006 -0.677407 -5.189369 -7.125000 0.000000 0.000000 69.262448 12.403184 31.968180 -11.214138 21.026961 -2.701723 0.736366 -0.606303 -2.193958 7.125000 0.000000 0.000000 
51.576455 17.172807 -8.677990 -18.050846 -82.365903 19.064845 -17.461288 -2.064439 -16.779541 3.009388 12.264878 35.735967 0.634327 -6.763418 -0.086107 1.018100 -6.419400 -18.006300 32.155693 2.687134 -11.034821 -3.491552 -11.080873 32.690446 -1.233710 -2.800456 -22.988450 -1.225900 -7.022300 19.781400 0.923692 0.025456 0.713286 -0.704713 -0.315679 12.750820 1.432304 -0.643680 26.118620 -0.536900 -0.924000 14.231400 -77.726557 -6.461807 23.910817 9.428954 -17.141953 -2.242306 -1.357200 -0.685114 -5.201910 -7.125000 0.000000 0.000000 69.510613 11.892105 31.948859 -11.539028 21.439831 -2.811649 0.732013 -0.601473 -2.413305 7.125000 0.000000 0.000000 
51.566147 17.173632 -8.662425 -18.420210 -82.516081 19.420226 -17.585503 -1.838644 -16.517590 2.940025 12.139254 35.382887 0.632825 -6.638471 -0.379944 0.984500 -6.315500 -17.702700 32.111292 2.814879 -10.952809 -3.489145 -11.075434 32.674490 -1.231709 -2.826666 -22.994466 -1.203900 -6.961200 19.600500 0.899420 0.129775 0.659343 -0.831258 -0.242915 12.485123 1.451366 -0.708254 26.027867 -0.574600 -0.915600 14.029600 -77.698094 -5.974991 23.984876 9.332480 -17.062499 -2.214566 -1.355435 -0.690459 -5.147344 -7.125000 0.000000 0.000000 69.764169 11.392822 31.916416 -11.839135 21.823592 -2.916256 0.726397 -0.598921 -2.582843 7.125000 0.000000 0.000000 
51.556560 17.174868 -8.646757 -18.741898 -82.664764 19.732304 -17.719619 -1.583560 -16.280697 2.874971 12.018935 35.046887 0.630513 -6.503618 -0.663327 0.942800 -6.184200 -17.319800 32.060028 2.959748 -10.874676 -3.486934 -11.070914 32.660109 -1.230582 -2.851801 -23.006455 -1.189000 -6.919500 19.477100 0.869863 0.244333 0.606585 -0.980546 -0.163826 12.227780 1.476803 -0.789939 25.930431 -0.610700 -0.911900 13.825800 -77.631572 -5.510705 24.106697 9.239790 -16.986370 -2.187389 -1.353810 -0.695822 -5.101345 -7.125000 0.000000 0.000000 70.047170 10.873490 31.860348 -12.157118 22.229978 -3.029939 0.720967 -0.596573 -2.777360 7.125000 0.000000 0.000000 
51.547592 17.176312 -8.631192 -18.980271 -82.812385 19.964289 -17.866631 -1.301600 -16.062801 2.810935 11.899489 34.713287 0.627337 -6.360119 -0.930126 0.898200 -6.040300 -16.901300 31.998368 3.120062 -10.798235 -3.485490 -11.067314 32.648482 -1.230219 -2.887832 -23.033290 -1.174300 -6.878200 19.354900 0.834047 0.371076 0.555403 -1.155325 -0.077583 11.981502 1.510282 -0.889794 25.829863 -0.644600 -0.913600 13.625700 -77.520976 -5.067075 24.293076 9.158099 -16.922904 -2.163029 -1.352251 -0.702712 -5.079362 -7.125000 0.000000 0.000000 70.363732 10.338382 31.771642 -12.489562 22.654435 -3.151892 0.715354 -0.594787 -2.996048 7.125000 0.000000 0.000000 
51.538934 17.177961 -8.615524 -19.165307 -82.963435 20.143611 -18.022045 -0.999585 -15.861796 2.748999 11.782133 34.386656 0.623614 -6.215239 -1.183108 0.853100 -5.890700 -16.467500 31.928773 3.294944 -10.721032 -3.484750 -11.064589 32.639402 -1.229414 -2.938056 -23.069081 -1.158600 -6.833600 19.223400 0.788818 0.525548 0.503618 -1.372667 0.025813 11.731825 1.550833 -1.023753 25.725906 -0.679900 -0.925400 13.419500 -77.353531 -4.624399 24.560180 9.084970 -16.870260 -2.140676 -1.350680 -0.711178 -5.067687 -7.125000 0.000000 0.000000 70.734873 9.763818 31.609108 -12.827181 23.088450 -3.280192 0.709004 -0.593995 -3.209988 7.125000 0.000000 0.000000 
51.530687 17.179713 -8.599649 -19.289727 -83.117978 20.263867 -18.185104 -0.690387 -15.672468 2.688193 11.666549 34.064529 0.619598 -6.072925 -1.421570 0.809400 -5.741500 -16.036100 31.850263 3.478380 -10.644754 -3.484644 -11.063152 32.634330 -1.230854 -2.966089 -23.105092 -1.154900 -6.823000 19.192000 0.740437 0.681303 0.454495 -1.601840 0.129080 11.500598 1.597812 -1.157709 25.621272 -0.709100 -0.938800 13.227500 -77.161116 -4.224880 24.849249 9.018668 -16.822451 -2.119821 -1.349345 -0.719640 -5.065113 -7.125000 0.000000 0.000000 71.118738 9.202436 31.433853 -13.166210 23.522286 -3.412079 0.702647 -0.594448 -3.419023 7.125000 0.000000 0.000000 
51.522853 17.181569 -8.583569 -19.355774 -83.274541 20.328373 -18.352294 -0.387802 -15.493863 2.628393 11.553477 33.747431 0.615736 -5.938464 -1.642893 0.769700 -5.602300 -15.634700 31.763000 3.661194 -10.572118 -3.485243 -11.062445 32.632057 -1.232094 -2.997177 -23.141644 -1.149000 -6.806200 19.142400 0.693844 0.821733 0.409024 -1.818097 0.221278 11.294141 1.648028 -1.270672 25.513169 -0.729400 -0.948100 13.052500 -76.971881 -3.877806 25.125042 8.964595 -16.784690 -2.102635 -1.348103 -0.728320 -5.072607 -7.125000 0.000000 0.000000 71.484017 8.675111 31.285846 -13.502686 23.948320 -3.544712 0.696454 -0.595537 -3.619308 7.125000 0.000000 0.000000 
51.515225 17.183424 -8.566973 -19.396112 -83.433726 20.368959 -18.518261 -0.101012 -15.320292 2.569935 11.443767 33.437673 0.612356 -5.816937 -1.847399 0.732100 -5.466700 -15.244600 31.669685 3.835962 -10.503397 -3.486639 -11.062599 32.633118 -1.233385 -3.022843 -23.173361 -1.143200 -6.789700 19.093700 0.656649 0.920800 0.370245 -1.983894 0.286076 11.128492 1.697701 -1.331717 25.402321 -0.736500 -0.944900 12.901900 -76.827823 -3.605916 25.319170 8.921474 -16.753460 -2.089356 -1.347411 -0.735987 -5.079210 -7.125000 0.000000 0.000000 71.785324 8.218611 31.234999 -13.830866 24.355861 -3.673889 0.690973 -0.596520 -3.825342 7.125000 0.000000 0.000000 
51.507700 17.185176 -8.549965 -19.437471 -83.592457 20.413007 -18.677557 0.161415 -15.151028 2.513291 11.338938 33.139126 0.609679 -5.711832 -2.033894 0.697300 -5.337800 -14.874700 31.573484 3.995422 -10.439846 -3.488371 -11.062924 32.635333 -1.234440 -3.039411 -23.195694 -1.137500 -6.773100 19.044900 0.634960 0.956988 0.339660 -2.071050 0.310164 11.012191 1.738500 -1.315966 25.286896 -0.732900 -0.920300 12.779000 -76.761081 -3.428420 25.370296 8.884645 -16.721332 -2.079173 -1.347376 -0.741290 -5.067111 -7.125000 0.000000 0.000000 71.988188 7.855238 31.331787 -14.149935 24.740697 -3.797293 0.686214 -0.596588 -4.035002 7.125000 0.000000 0.000000 
51.500382 17.186517 -8.532338 -19.517380 -83.747183 20.495753 -18.824497 0.398369 -14.985064 2.459202 11.239687 32.854431 0.607944 -5.627109 -2.201518 0.666600 -5.221200 -14.540500 31.479500 4.136959 -10.379754 -3.490057 -11.063120 32.638033 -1.234929 -3.049609 -23.207478 -1.130300 -6.752600 18.984400 0.629532 0.931683 0.317554 -2.077423 0.294800 10.945952 1.768767 -1.228300 25.168261 -0.720800 -0.875400 12.684100 -76.769738 -3.339939 25.303010 8.861173 -16.698191 -2.073936 -1.347560 -0.744969 -5.054859 -7.125000 0.000000 0.000000 72.088082 7.583922 31.578182 -14.459912 25.102925 -3.914090 0.682250 -0.594834 -4.258249 7.125000 0.000000 0.000000 
